<svg width="20" height="20" viewBox="0 0 20 20" fill="none" xmlns="http://www.w3.org/2000/svg">
<g id="Icon / Style / Eye-off-outline">
<path id="Vector" d="M1.66671 3.55833L2.73337 2.5L16.6667 16.4333L15.6084 17.5L13.0417 14.9333C12.0834 15.25 11.0667 15.4167 10 15.4167C5.83337 15.4167 2.27504 12.825 0.833374 9.16667C1.40837 7.7 2.32504 6.40833 3.49171 5.38333L1.66671 3.55833ZM10 6.66667C10.6631 6.66667 11.299 6.93006 11.7678 7.3989C12.2366 7.86774 12.5 8.50363 12.5 9.16667C12.5005 9.45047 12.4526 9.73228 12.3584 10L9.16671 6.80833C9.43443 6.71415 9.71623 6.66625 10 6.66667ZM10 2.91667C14.1667 2.91667 17.725 5.50833 19.1667 9.16667C18.4866 10.8943 17.3308 12.3939 15.8334 13.4917L14.65 12.3C15.8024 11.5028 16.7319 10.4242 17.35 9.16667C16.6763 7.79162 15.6304 6.63314 14.3311 5.82292C13.0318 5.0127 11.5313 4.58323 10 4.58333C9.09171 4.58333 8.20004 4.73333 7.36671 5L6.08337 3.725C7.28337 3.20833 8.60837 2.91667 10 2.91667ZM2.65004 9.16667C3.32374 10.5417 4.36968 11.7002 5.66898 12.5104C6.96828 13.3206 8.46882 13.7501 10 13.75C10.575 13.75 11.1417 13.6917 11.6667 13.575L9.76671 11.6667C9.18684 11.6045 8.64573 11.3457 8.23335 10.9334C7.82098 10.521 7.56219 9.97986 7.50004 9.4L4.66671 6.55833C3.84171 7.26667 3.15004 8.15 2.65004 9.16667Z" fill="#9C9C9C"/>
</g>
</svg>
