<svg width="11" height="10" viewBox="0 0 11 10" fill="none" xmlns="http://www.w3.org/2000/svg">
<g id="Group 598">
<path id="Vector" d="M9.60374 4.33676C9.61099 4.22799 9.615 4.11535 9.615 3.99893L9.60374 4.33676ZM9.60374 4.33676L9.38449 4.32718C8.95884 4.30859 7.74072 4.23599 6.44144 3.98237C5.79193 3.85558 5.13329 3.68566 4.54845 3.45983C3.95871 3.23212 3.47465 2.95912 3.1473 2.64218L2.82997 2.33494C3.39171 1.96781 4.22066 1.66542 5.43917 1.66542C7.11845 1.66542 8.00944 2.23918 8.48372 2.75419C8.7273 3.01869 8.87397 3.28192 8.95896 3.47572C9.00138 3.57245 9.02802 3.65093 9.04342 3.70213C9.0511 3.72768 9.05594 3.74627 9.05851 3.75674L9.06069 3.76597L9.06041 3.76461L9.06021 3.7636L9.06009 3.76302C9.06008 3.76295 9.06007 3.76288 9.06459 3.76193L9.60259 3.70934C9.6109 3.8065 9.61499 3.90317 9.615 3.99888L9.60374 4.33676ZM1.64582 3.79613L1.64882 3.78617C1.6522 3.77531 1.65841 3.75628 1.66796 3.73023C1.68709 3.67805 1.71941 3.5983 1.76895 3.50009C1.86784 3.30407 2.03366 3.03769 2.29747 2.76963L2.29952 3.00574C2.30926 4.12547 1.59381 4.64689 1.32411 4.80387C1.28551 4.56047 1.26017 4.29161 1.26017 3.99888C1.26017 3.91458 1.26334 3.82953 1.26976 3.74406L1.64318 3.79239C1.64656 3.79334 1.64655 3.79339 1.64653 3.79345L1.64638 3.79401L1.64613 3.79496L1.64582 3.79613ZM1.64582 3.79613L1.64579 3.7962C1.64572 3.79646 1.64569 3.79659 1.64569 3.79659C1.64569 3.79659 1.64573 3.79643 1.64582 3.79613ZM1.19227 7.59449C1.43431 8.22097 1.91901 8.82782 2.63997 9.27521C2.56613 9.40425 2.48683 9.45117 2.42397 9.47337C2.32624 9.50789 2.1823 9.51053 1.99409 9.45838C1.80966 9.40728 1.62334 9.31429 1.47369 9.21516C1.39981 9.16622 1.34158 9.1202 1.30174 9.08379C1.28206 9.06581 1.271 9.05394 1.26598 9.04836C1.06168 8.66046 1.05451 8.11251 1.19227 7.59449ZM8.45087 9.4734C8.38795 9.45118 8.30862 9.40422 8.23475 9.27522C8.9556 8.82788 9.44026 8.2211 9.68232 7.59469C9.82011 8.11273 9.81298 8.66055 9.609 9.04838C9.60397 9.05398 9.59289 9.06585 9.57321 9.08384C9.53336 9.12026 9.47512 9.16629 9.40124 9.21523C9.25158 9.31437 9.06526 9.40734 8.88083 9.45843C8.69263 9.51057 8.54866 9.50794 8.45087 9.4734Z" fill="#9C9C9C" stroke="#9C9C9C"/>
<path id="Vector_2" d="M7.85417 5.74989C7.85417 5.93397 7.70493 6.08321 7.52083 6.08321C7.33673 6.08321 7.1875 5.93397 7.1875 5.74989C7.1875 5.5658 7.33673 5.41656 7.52083 5.41656C7.70493 5.41656 7.85417 5.5658 7.85417 5.74989Z" fill="#9C9C9C" stroke="#9C9C9C"/>
<path id="Vector_3" d="M3.6901 5.74989C3.6901 5.93397 3.54087 6.08321 3.35677 6.08321C3.17267 6.08321 3.02344 5.93397 3.02344 5.74989C3.02344 5.5658 3.17267 5.41656 3.35677 5.41656C3.54087 5.41656 3.6901 5.5658 3.6901 5.74989Z" fill="#9C9C9C" stroke="#9C9C9C"/>
<g id="Vector_4">
<mask id="path-4-inside-1_15_62" fill="white">
<path d="M6.78591 7.68786C5.91674 8.28785 4.95258 8.28419 4.08891 7.68786C3.98541 7.61586 3.89158 7.74019 3.96191 7.85553C4.22458 8.28419 4.75658 8.66668 5.43724 8.66668C6.11824 8.66668 6.65008 8.28419 6.91291 7.85553C6.98374 7.74019 6.89008 7.61586 6.78591 7.68786Z"/>
</mask>
<path d="M6.78591 7.68786C5.91674 8.28785 4.95258 8.28419 4.08891 7.68786C3.98541 7.61586 3.89158 7.74019 3.96191 7.85553C4.22458 8.28419 4.75658 8.66668 5.43724 8.66668C6.11824 8.66668 6.65008 8.28419 6.91291 7.85553C6.98374 7.74019 6.89008 7.61586 6.78591 7.68786Z" fill="#9C9C9C"/>
<path d="M6.78591 7.68786L7.35401 8.51082L7.3545 8.51048L6.78591 7.68786ZM4.08891 7.68786L3.51785 8.50877L3.52073 8.51076L4.08891 7.68786ZM3.96191 7.85553L3.10814 8.37618L3.10925 8.378L3.96191 7.85553ZM6.91291 7.85553L6.06079 7.33218L6.0604 7.33281L6.91291 7.85553ZM6.21781 6.8649C5.69189 7.22795 5.18007 7.22605 4.65709 6.86496L3.52073 8.51076C4.72508 9.34232 6.14159 9.34776 7.35401 8.51082L6.21781 6.8649ZM4.65997 6.86695C4.46034 6.72808 4.18202 6.63137 3.86737 6.6785C3.55786 6.72486 3.31577 6.89576 3.16264 7.09824C2.85842 7.50049 2.88523 8.01066 3.10814 8.37618L4.81568 7.33487C4.96825 7.58506 5.00681 7.9754 4.75781 8.30465C4.63228 8.47063 4.42866 8.61674 4.16365 8.65643C3.8935 8.6969 3.66573 8.61164 3.51785 8.50877L4.65997 6.86695ZM3.10925 8.378C3.53251 9.06874 4.3699 9.66668 5.43724 9.66668V7.66668C5.14325 7.66668 4.91664 7.49963 4.81456 7.33305L3.10925 8.378ZM5.43724 9.66668C6.50496 9.66668 7.34206 9.06871 7.76542 8.37824L6.0604 7.33281C5.9581 7.49966 5.73152 7.66668 5.43724 7.66668V9.66668ZM7.76503 8.37887C7.98873 8.01464 8.01853 7.50304 7.71284 7.09853C7.55905 6.89502 7.31639 6.72458 7.00734 6.67843C6.69368 6.63159 6.41638 6.72765 6.21732 6.86524L7.3545 8.51048C7.20752 8.61207 6.98099 8.69667 6.71197 8.6565C6.44758 8.61702 6.24344 8.47136 6.11723 8.30436C5.8667 7.97285 5.90792 7.58108 6.06079 7.33218L7.76503 8.37887Z" fill="#9C9C9C" mask="url(#path-4-inside-1_15_62)"/>
</g>
</g>
</svg>
